<svg width="1285" height="394" viewBox="0 0 1285 394" fill="none" xmlns="http://www.w3.org/2000/svg">
<path d="M895.58 2.43546C907.458 2.42908 922.341 1.52129 933.632 3.78116C951.902 7.43775 963.568 24.2382 961.312 42.6025C959.05 61.0685 954.129 79.0248 950.142 97.1288L922.991 217.008C918 238.247 912.28 251.177 893.014 263.1C873.945 273.616 855.081 271.757 834.139 271.746L776.254 271.641L835.949 2.50675L895.58 2.43546ZM907.967 58.1298C910.675 41.5433 886.346 45.8628 875.889 45.8232L852.797 149.703C847.339 174.777 841.81 202.564 835.524 227.29C843.634 227.392 858.898 228.368 865.7 225.491C868.196 223.496 871.357 221.101 872.276 218.013C874.836 209.459 876.808 200.136 878.724 191.445L889.252 143.75L901.773 87.9013C903.965 78.1005 906.355 68.0105 907.967 58.1298Z" fill="#151515"/>
<path d="M252.46 0.76495C257.513 -0.0178422 268.647 0.258219 273.933 0.363583C290.708 0.696642 309.505 -2.11019 323.757 8.59991C336.16 17.9206 336.617 34.0825 333.881 48.0589C331.054 62.9087 327.313 77.5923 323.869 92.3226L310.715 150.654L298.627 203.867C290.064 241.209 284.874 267.66 240.266 273.205C232.389 273.647 223.495 273.64 215.503 273.591C199.635 273.419 182.756 275.358 169.244 265.169C157.47 256.289 156.059 243.063 158.783 229.534C161.411 216.488 164.402 203.654 167.272 190.694L182.38 122.011L192.865 74.4925C196.686 56.945 199.384 36.7763 210.672 22.3558C221.607 8.3885 235.356 3.02213 252.46 0.76495ZM281.578 48.9935C277.117 41.0748 269.677 42.1364 261.689 42.3499C256.861 43.4106 252.011 45.2294 249.288 49.6907C245.1 56.5543 228.643 137.481 225.281 152.654C220.79 172.915 215.447 193.278 211.676 213.663C210.962 217.522 210.544 221.35 210.553 225.276C214.177 232.657 224.543 231.004 231.549 230.697C239.635 229.429 243.713 225.364 245.528 217.566C257.823 164.753 268.952 111.651 280.884 58.7503C281.456 56.2145 281.957 51.5505 281.578 48.9935Z" fill="#151515"/>
<path d="M1145.4 2.48047L1200.19 2.52714C1200.88 16.9223 1202.78 139.599 1204.49 142.318L1205.41 141.753C1207.25 137.654 1212.8 110.24 1214.2 104.056L1237.19 2.4932L1284.14 2.52643L1245.4 170.421C1237.97 202.841 1230.25 239.948 1221.69 271.648L1210.05 271.758C1196.56 271.652 1183.05 271.646 1169.55 271.737C1167.3 238.965 1166.56 205.96 1165.29 173.171C1164.94 164.283 1164.77 128.958 1163.12 122.519L1162.17 122.322C1159.54 129.438 1154.15 158.766 1152.12 168.457C1147.47 190.472 1142.6 212.438 1137.5 234.352C1134.7 246.695 1132.17 259.536 1128.91 271.72L1083.42 271.66L1145.4 2.48047Z" fill="#151515"/>
<path d="M607.079 2.49609L659.142 2.55761C657.099 7.5125 642.096 31.0219 638.412 37.0912C620.125 67.1465 601.662 97.0936 583.022 126.932C589.026 165.439 593.422 205.977 598.86 244.895C600.234 252.498 601.266 263.608 602.257 271.527C584.343 272.026 565.834 271.594 547.734 271.884C547.411 267.946 545.785 254.592 545.236 251.409C543.306 240.233 536.239 159.575 533.399 156.883C531.088 158.6 526.629 181.902 525.465 186.934C519.168 215.206 512.717 243.442 506.112 271.643L456.85 271.692C465.06 239.444 472.372 201.684 479.451 168.944L516.456 2.52225L566.052 2.5166C557.927 33.3773 553.463 66.7321 544.926 97.6537C544.138 100.511 542.144 108.107 543.643 110.371C546.357 107.316 558.636 85.2548 561.536 80.2638C576.571 54.2555 591.751 28.3326 607.079 2.49609Z" fill="#151515"/>
<path d="M406.57 0.753674C415.364 -0.527653 452.922 -0.153576 461.829 1.71114C497.39 9.15726 487.898 42.7977 482.128 68.3486L474.989 99.8465C458.789 100.257 441.716 99.9851 425.45 99.9589C428.32 87.1824 436.344 59.5342 434.698 47.9181C433.779 41.4393 405.98 36.8415 401.345 54.44C396.266 73.7186 392.493 93.2086 388.062 112.639L373.668 177.78C371.36 188.206 363.144 217.716 365.752 226.317C367.284 231.372 394.434 235.811 398.868 219.78C403.092 204.508 406.274 189.393 409.629 173.911C409.694 172.863 410.095 171.888 410.437 170.889C412.308 169.918 454.365 170.421 460.084 170.44C454.871 191.764 448.527 233.968 436.642 250.296C427.497 262.861 413.613 270.322 398.382 272.619C390.398 273.823 382.048 273.475 373.988 273.537C357.513 273.664 338.02 275.678 324.047 265.173C316.971 259.854 313.205 252.779 311.978 244.09C311.247 238.916 311.966 233.751 312.836 228.637C314.913 216.432 318.062 204.234 320.76 192.144L336.538 122.366L347.7 72.2838C356.214 33.7104 361.054 7.09737 406.57 0.753674Z" fill="#151515"/>
<path d="M87.0357 2.50684L137.077 2.53866C132.122 29.5448 124.136 61.6522 118.156 88.7828L87.7257 226.902L145.774 226.914C142.567 238.782 138.636 261.193 134.916 271.795C99.2199 271.392 63.0185 271.697 27.2852 271.701C29.1121 261.306 32.2761 248.715 34.6312 238.236L46.72 183.877L87.0357 2.50684Z" fill="#151515"/>
<path d="M1072 2.51172L1123.97 2.54778C1121.18 11.8706 1117.97 28.1679 1115.66 38.2291L1100 106.12C1087.45 160.683 1073.36 217.088 1061.78 271.597C1048.57 272.466 1025.31 271.694 1011.35 271.756C1012.53 264.024 1015.57 252.196 1017.35 244.137L1030.31 186.183L1072 2.51172Z" fill="#151515"/>
<path d="M677.666 2.48438L816.803 2.49781C812.893 21.058 808.269 40.4985 803.921 58.9745C800.393 59.9609 773.342 59.3082 768.392 59.3033L664.996 59.2446C668.991 45.2829 674.994 16.8498 677.666 2.48438Z" fill="#151515"/>
<path d="M654.581 108.635L791.95 108.582C787.955 127.39 783.671 146.135 779.089 164.81L641.713 164.763C646.403 147.119 650.558 126.538 654.581 108.635Z" fill="#151515"/>
<path d="M380.907 313.18L478.143 313.232C476.676 319.89 472.273 332.934 470.152 339.965L453.973 393.425C449.774 394.011 429.07 393.612 423.954 393.609L357.66 393.521C364.345 368.503 373.177 337.76 380.907 313.18Z" fill="#E83A3A"/>
<path d="M260.791 313.151L358.433 313.153C350.209 339.416 341.436 366.911 334.048 393.386C327.78 394.018 309.575 393.569 302.46 393.569L237.592 393.562C244.296 367.964 253.167 338.68 260.791 313.151Z" fill="#FA7B16"/>
<path d="M619.317 313.169L715.138 313.215C712.946 322.476 709.178 334.014 706.421 343.273C701.394 359.996 696.501 376.761 691.75 393.566L595.885 393.642C603.96 369.199 611.758 338.467 619.317 313.169Z" fill="#17A6E8"/>
<path d="M142.081 313.07C173.028 313.909 207.535 313.141 238.766 313.137C230.19 339.27 222.131 366.975 214.291 393.4C203.915 393.946 190.894 393.604 180.236 393.598L119.111 393.522C121.165 384.668 124.843 373.072 127.422 364.04C132.199 347.019 137.086 330.029 142.081 313.07Z" fill="#FFBE00"/>
<path d="M500.823 313.162L595.405 313.195L572.161 393.475C542.77 394.517 507.867 393.588 477.898 393.603L500.823 313.162Z" fill="#A638B0"/>
<path d="M631.227 213.538C676.796 212.893 724.026 213.431 769.707 213.529C765.698 229.108 760.53 257.857 756.062 271.709L618.383 271.7C621.825 252.65 627.636 232.778 631.227 213.538Z" fill="#151515"/>
<path d="M22.7731 313.159L118.976 313.189C117.108 320.936 113.601 331.398 111.241 339.276L95.1102 393.473C63.7385 394.059 31.5318 393.396 0 393.618C1.1268 390.328 2.2099 386.405 3.0799 383.036C9.06754 359.847 17.4096 336.428 22.7731 313.159Z" fill="#6CC32C"/>
</svg>
