<svg width="164" height="48" viewBox="0 0 164 48" fill="none" xmlns="http://www.w3.org/2000/svg">
<path d="M114.453 0.309389C115.963 0.308562 117.856 0.193949 119.291 0.481264C121.614 0.946299 123.096 3.08208 122.81 5.41681C122.522 7.76447 121.897 10.0478 121.39 12.3494L117.938 27.5906C117.303 30.2909 116.575 31.9351 114.126 33.451C111.702 34.7875 109.304 34.551 106.642 34.5496L99.2812 34.5369L106.871 0.319155L114.453 0.309389ZM116.027 7.39044C116.371 5.28201 113.279 5.83094 111.949 5.82599L109.013 19.033C108.319 22.221 107.617 25.7545 106.817 28.8983C107.849 28.9113 109.789 29.0344 110.653 28.6688C110.971 28.4151 111.372 28.111 111.489 27.7186C111.815 26.631 112.066 25.4456 112.31 24.3406L113.647 18.2762L115.24 11.1756C115.519 9.92961 115.822 8.64659 116.027 7.39044Z" fill="white"/>
<path d="M32.689 0.097211C33.3316 -0.00223825 34.7466 0.0330342 35.4185 0.0464297C37.5513 0.0887751 39.9415 -0.268401 41.7535 1.0933C43.3302 2.27832 43.3884 4.33302 43.0406 6.10991C42.6811 7.99792 42.2049 9.86502 41.7672 11.7378L40.0953 19.1539L38.5582 25.9195C37.4695 30.6672 36.8097 34.0298 31.1383 34.7349C30.1368 34.7911 29.0059 34.7909 27.9898 34.7847C25.9725 34.7629 23.8268 35.0087 22.109 33.7134C20.6119 32.5844 20.4326 30.9031 20.7789 29.1831C21.1129 27.5244 21.4931 25.8925 21.858 24.2447L23.7789 15.5122L25.1119 9.47123C25.5977 7.24031 25.9405 4.67576 27.3756 2.84233C28.7658 1.06652 30.5144 0.384189 32.689 0.097211ZM33.8619 5.38334C33.2481 5.5182 32.6319 5.74979 32.2857 6.31694C31.7533 7.1892 29.6605 17.4788 29.233 19.4078C28.6621 21.9838 27.983 24.5728 27.5035 27.1646C27.4127 27.6551 27.3598 28.1421 27.3609 28.6412C27.8218 29.5791 29.1392 29.3687 30.0299 29.3296C31.058 29.1685 31.5765 28.6521 31.8072 27.6607C33.3704 20.946 34.7852 14.1941 36.3023 7.4683C36.375 7.14582 36.4393 6.55304 36.3912 6.22807C35.824 5.22125 34.8776 5.35619 33.8619 5.38334Z" fill="white"/>
<path d="M146.217 0.31543L153.183 0.321364C153.271 2.15157 153.512 17.7488 153.729 18.0945L153.847 18.0226C154.081 17.5015 154.785 14.016 154.963 13.2298L157.887 0.317048L163.856 0.321274L158.93 21.6674C157.985 25.7893 157.004 30.5072 155.916 34.5375L154.437 34.5515C152.72 34.5381 151.004 34.5373 149.288 34.5489C149.001 30.3822 148.907 26.186 148.745 22.017C148.701 20.8871 148.68 16.3959 148.469 15.5771L148.348 15.5521C148.014 16.4569 147.329 20.1857 147.071 21.4177C146.48 24.2168 145.861 27.0096 145.212 29.7957C144.856 31.3649 144.535 32.9975 144.12 34.5467L138.336 34.539L146.217 0.31543Z" fill="white"/>
<path d="M77.774 0.317383L84.3933 0.325204C84.1336 0.955171 82.2261 3.94416 81.7577 4.71582C79.4327 8.53706 77.0853 12.3446 74.7155 16.1382C75.4787 21.034 76.0377 26.188 76.729 31.136C76.9038 32.1028 77.035 33.5153 77.161 34.522C74.8834 34.5855 72.5302 34.5306 70.2289 34.5674C70.1879 34.0668 69.9811 32.369 69.9113 31.9643C69.6659 30.5434 68.7675 20.2885 68.4064 19.9462C68.1125 20.1645 67.5456 23.1272 67.3976 23.7668C66.597 27.3613 65.7768 30.9514 64.9371 34.5369L58.6738 34.5431C59.7177 30.443 60.6473 25.6422 61.5473 21.4797L66.2522 0.320709L72.5579 0.31999C71.5248 4.24364 70.9572 8.48438 69.8719 12.4158C69.7717 12.779 69.5182 13.7447 69.7087 14.0327C70.0538 13.6442 71.615 10.8394 71.9837 10.2048C73.8952 6.89809 75.8253 3.60225 77.774 0.317383Z" fill="white"/>
<path d="M52.2797 0.0958224C53.3978 -0.067086 58.1729 -0.0195257 59.3053 0.217555C63.8267 1.16426 62.6198 5.44132 61.8862 8.68987L60.9785 12.6945C58.9189 12.7467 56.7482 12.7121 54.6801 12.7088C55.0451 11.0844 56.0653 7.5692 55.8559 6.09233C55.7391 5.26861 52.2048 4.68405 51.6154 6.92152C50.9697 9.37261 50.49 11.8506 49.9266 14.3209L48.0966 22.6031C47.8031 23.9285 46.7585 27.6806 47.0901 28.774C47.285 29.4167 50.7368 29.9812 51.3005 27.9429C51.8375 26.0012 52.2422 24.0795 52.6686 22.1111C52.6769 21.9779 52.7279 21.8539 52.7713 21.7269C53.0093 21.6034 58.3564 21.6674 59.0835 21.6699C58.4208 24.381 57.6141 29.7468 56.1031 31.8227C54.9404 33.4203 53.1751 34.3689 51.2387 34.6609C50.2236 34.814 49.162 34.7698 48.1372 34.7776C46.0426 34.7937 43.5642 35.0498 41.7877 33.7142C40.8881 33.0379 40.4093 32.1384 40.2532 31.0338C40.1603 30.3758 40.2517 29.7192 40.3623 29.0691C40.6264 27.5172 41.0268 25.9664 41.3699 24.4292L43.3758 15.5576L44.7949 9.19019C45.8774 4.28595 46.4928 0.902363 52.2797 0.0958224Z" fill="white"/>
<path d="M11.6553 0.318359L18.0176 0.322405C17.3876 3.75598 16.3722 7.83813 15.612 11.2875L11.743 28.8481L19.1234 28.8496C18.7155 30.3585 18.2157 33.2078 17.7428 34.5557C13.2044 34.5045 8.60175 34.5433 4.05859 34.5438C4.29088 33.2222 4.69314 31.6213 4.99257 30.289L6.52955 23.3779L11.6553 0.318359Z" fill="white"/>
<path d="M136.885 0.319336L143.493 0.323921C143.138 1.50923 142.73 3.58128 142.436 4.86045L140.445 13.4922C138.849 20.4294 137.057 27.6007 135.585 34.5309C133.906 34.6415 130.949 34.5433 129.174 34.5511C129.324 33.5681 129.71 32.0643 129.936 31.0396L131.585 23.6714L136.885 0.319336Z" fill="white"/>
<path d="M86.7476 0.316406L104.437 0.318115C103.94 2.67786 103.352 5.14954 102.8 7.49858C102.351 7.624 98.9118 7.54102 98.2826 7.54039L85.1367 7.53293C85.6446 5.75783 86.4078 2.14283 86.7476 0.316406Z" fill="white"/>
<path d="M83.8138 13.8124L101.279 13.8057C100.771 16.197 100.226 18.5802 99.6438 20.9545L82.1777 20.9486C82.7741 18.7053 83.3023 16.0885 83.8138 13.8124Z" fill="white"/>
<path d="M48.4282 37.7285L60.7909 37.7352C60.6044 38.5816 60.0445 40.2401 59.7749 41.134L57.7179 47.931C57.184 48.0054 54.5518 47.9547 53.9013 47.9543L45.4727 47.9432C46.3226 44.7624 47.4454 40.8536 48.4282 37.7285Z" fill="white"/>
<path d="M33.1566 37.7246L45.5708 37.7248C44.5252 41.0639 43.4098 44.5597 42.4705 47.9257C41.6736 48.006 39.3591 47.9489 38.4544 47.949L30.207 47.948C31.0594 44.6935 32.1873 40.9703 33.1566 37.7246Z" fill="white"/>
<path d="M78.739 37.7266L90.9217 37.7324C90.643 38.9099 90.1639 40.3768 89.8133 41.554C89.1742 43.6802 88.5522 45.8117 87.9481 47.9483L75.7598 47.9579C76.7864 44.8503 77.7778 40.9429 78.739 37.7266Z" fill="white"/>
<path d="M18.065 37.7148C21.9995 37.8215 26.3868 37.7238 30.3574 37.7233C29.2671 41.0459 28.2425 44.5683 27.2457 47.928C25.9266 47.9974 24.271 47.9539 22.9159 47.9532L15.1445 47.9435C15.4056 46.8178 15.8733 45.3435 16.2012 44.1952C16.8085 42.0311 17.4299 39.871 18.065 37.7148Z" fill="white"/>
<path d="M63.6743 37.7256L75.6996 37.7298L72.7444 47.9366C69.0076 48.0691 64.57 47.951 60.7598 47.9529L63.6743 37.7256Z" fill="white"/>
<path d="M80.8439 27.1491C86.6377 27.0671 92.6425 27.1354 98.4504 27.1479C97.9407 29.1287 97.2836 32.7838 96.7155 34.545L79.2109 34.5438C79.6485 32.1218 80.3874 29.5953 80.8439 27.1491Z" fill="white"/>
<path d="M2.89538 37.7256L15.1267 37.7294C14.8892 38.7143 14.4433 40.0445 14.1432 41.0461L12.0924 47.9368C8.10374 48.0112 4.00897 47.9269 0 47.9551C0.143261 47.5369 0.280967 47.0382 0.39158 46.6098C1.15285 43.6615 2.21346 40.684 2.89538 37.7256Z" fill="white"/>
</svg>
